<svg xmlns="http://www.w3.org/2000/svg" width="200" height="200" viewBox="0 0 200 200">
  <defs>
    <linearGradient id="bgGrad" x1="0" y1="0" x2="0" y2="1">
      <stop offset="0%" stop-color="#0D1B3D"/>
      <stop offset="100%" stop-color="#1a2d5e"/>
    </linearGradient>
    <linearGradient id="heartGrad" x1="0" y1="0" x2="1" y2="1">
      <stop offset="0%" stop-color="#F53357"/>
      <stop offset="100%" stop-color="#ff6b7a"/>
    </linearGradient>
  </defs>
  <rect width="200" height="200" rx="40" fill="url(#bgGrad)"/>
  <g transform="translate(100,85)">
    <path d="M0,-30 C-20,-30 -45,-10 -45,10 C-45,25 -30,40 0,55 C30,40 45,25 45,10 C45,-10 20,-30 0,-30Z" fill="white" opacity="0.95"/>
    <path d="M0,-20 C-14,-20 -28,-5 -28,8 C-28,18 -18,28 0,38 C18,28 28,18 28,8 C28,-5 14,-20 0,-20Z" fill="url(#heartGrad)" opacity="0.85"/>
    <path d="M-8,6 L8,6 M0,-2 L0,14" stroke="white" stroke-width="2.5" stroke-linecap="round" opacity="0.9"/>
  </g>
  <text x="100" y="155" text-anchor="middle" fill="white" font-size="22" font-weight="800" font-family="Inter, sans-serif" letter-spacing="2">MADANI</text>
  <text x="100" y="175" text-anchor="middle" fill="rgba(255,255,255,0.6)" font-size="10" font-family="Inter, sans-serif" letter-spacing="3">RSUD</text>
</svg>
